<svg width="200" height="200" viewBox="0 0 1398 1152" fill="none" xmlns="http://www.w3.org/2000/svg">
<mask id="mask0" mask-type="alpha" maskUnits="userSpaceOnUse" x="305" y="182" width="788" height="788">
<circle cx="698.672" cy="575.672" r="393.672" fill="#2051A4"/>
</mask>
<g mask="url(#mask0)">
<path fill-rule="evenodd" clip-rule="evenodd" d="M1078.03 681.245C1064.47 730.056 1041.75 775.051 1011.83 814.261H973.049V637.595C1016.86 660.286 1052.84 674.306 1078.03 681.245ZM841.827 814.261L949.191 814.261V624.792C916.651 606.734 880.525 584.288 841.827 556.911V814.261ZM817.968 539.637V814.261H710.599L710.6 451.95C747.717 485.165 783.723 514.277 817.968 539.637ZM1083.71 658.063C1089.37 631.492 1092.34 603.93 1092.34 575.672C1092.34 358.253 916.091 182 698.672 182C504.821 182 343.696 322.112 311.041 506.59C360.083 467.24 439.32 396.172 543.589 284.661V271.471C543.589 261.588 551.6 253.577 561.483 253.577C571.366 253.577 579.377 261.588 579.377 271.471V284.894C796.201 532.802 1003.1 635.629 1083.71 658.063ZM543.589 319.466L543.589 814.261H436.224L436.224 427.498C468.066 397.118 503.957 361.269 543.589 319.466ZM412.365 449.952L412.365 814.261H385.512C334.999 748.062 305 665.37 305 575.672C305 563.765 305.529 551.981 306.564 540.343C331.581 521.418 367.209 491.851 412.365 449.952ZM579.377 320.836L579.377 814.261L686.741 814.261V430.168C651.626 397.47 615.661 361.121 579.377 320.836ZM543.589 850.049H416.369C452.325 887.037 495.487 916.983 543.589 937.62V850.049ZM579.377 950.944C617.006 962.896 657.086 969.344 698.672 969.344C809.397 969.344 909.445 923.631 980.974 850.049H579.377V950.944Z" fill="#1A3F5E"/>
</g>
</svg>
